<svg width="50" height="74" viewBox="0 0 50 74" fill="none" xmlns="http://www.w3.org/2000/svg">
<path d="M43.5622 14.9316C44.1352 14.1072 44.5568 13.3039 44.8237 12.3723C45.5402 9.87039 44.7579 7.25992 42.7946 5.56211C39.8948 3.0553 35.4724 3.26403 32.8325 6.06501C31.6411 7.32857 31.0289 8.96895 31.0513 10.7158C30.9848 12.6336 29.6715 14.2795 28.2861 15.4752C26.0868 11.2901 26.8607 6.34938 30.2437 3.11203C34.7643 -1.21446 42.1348 -1.00714 46.3667 3.59252C49.5999 7.10653 49.9424 12.1026 47.4839 16.156C46.822 17.2479 46.0445 18.1648 45.1613 19.0851C44.1086 20.1267 42.9963 21.0512 41.7874 21.9737L38.494 19.5922L41.5065 17.1828C42.2546 16.474 42.9305 15.777 43.5622 14.9309V14.9316Z" fill="#004555"/>
<path d="M12.0193 20.6038L15.7588 23.3725C14.6613 24.1591 13.6057 24.9107 12.5943 25.8261L8.56202 22.9026C5.90112 20.9645 3.14427 18.8086 1.47166 15.9222C0.0855291 13.5295 -0.359238 10.7489 0.299157 8.05715C0.912726 5.63299 2.3689 3.58356 4.38191 2.12038C8.21671 -0.628067 13.4425 -0.714919 17.3607 1.92006C16.2975 2.76967 15.4261 3.66691 14.7005 4.8107C11.91 3.19903 8.41003 3.56465 6.07272 5.76607C4.25793 7.48771 3.57222 10.0036 4.28175 12.4089C4.62566 13.5737 5.21471 14.5886 6.00058 15.5264C6.88101 16.5778 7.84269 17.5037 8.94585 18.3225L12.02 20.6024L12.0193 20.6038Z" fill="#004555"/>
<path d="M45.08 40.5015L45.0772 33.692C44.8524 29.8369 41.538 27.253 38.7041 25.1237L35.0325 22.4839C33.7213 21.5061 32.4739 20.5269 31.2656 19.3614C32.2588 18.5069 33.175 17.6299 33.9826 16.5625C35.1221 17.6608 36.2925 18.5853 37.5351 19.5008L41.2354 22.1645C45.1641 25.0971 48.9386 28.4921 49.0857 33.7746V40.5001L45.0793 40.5015H45.08Z" fill="#004555"/>
<path d="M13.0296 34.2125V40.4995L9.00781 40.4981L9.01201 33.7755C9.14019 30.5171 10.7533 28.1448 13.0934 26.026C14.2308 25.0321 15.4069 24.1902 16.6732 23.3581L20.3049 21.1875L24.05 23.487L19.5183 26.1367C17.4423 27.4892 15.2128 28.9594 13.8911 31.0928C13.3252 32.0468 13.0009 33.0505 13.0303 34.2118L13.0296 34.2125Z" fill="#004555"/>
<path d="M17.5644 10.1164C17.5125 12.5763 16.7484 14.0136 15.1703 15.7737C13.8753 13.8938 13.3499 11.7323 13.5734 9.49165C13.8535 6.63044 15.351 4.08791 17.6176 2.33055C21.4636 -0.612614 26.854 -0.789821 30.885 1.92221C29.7881 2.77532 28.9224 3.71669 28.2122 4.81424C25.2249 3.0702 21.4762 3.65785 19.1753 6.19758C18.255 7.29724 17.5959 8.61123 17.5644 10.1171V10.1164Z" fill="#004555"/>
<path d="M31.0526 40.4991H27.0469L27.0511 33.5502C27.1716 31.7256 27.6681 30.0607 28.6011 28.5079C29.2469 27.4068 30.0258 26.4795 30.9048 25.5507C31.9813 24.4784 33.1146 23.5174 34.3593 22.5781L37.6533 24.9582L34.7382 27.2828C33.8515 28.1128 33.0383 28.9379 32.3687 29.9479C31.5128 31.2269 31.0484 32.6306 31.054 34.182L31.0512 40.5005L31.0526 40.4991Z" fill="#004555"/>
<path d="M3.998 40.5034H0.000700421L0 33.7632C0.0497299 31.933 0.548429 30.2415 1.44777 28.6642C2.1657 27.416 3.04683 26.3584 4.06174 25.3344C5.08225 24.344 6.15039 23.4496 7.30329 22.5859L10.5974 24.959L7.75786 27.2122C6.88794 28.0107 6.10277 28.8127 5.42266 29.773C4.58005 30.9973 4.07014 32.3316 4.0008 33.8319L3.998 40.5027V40.5034Z" fill="#004555"/>
<path d="M14.7428 21.978L11.4375 19.591C13.3377 18.1803 15.3381 16.6576 16.6633 14.6943C17.66 13.3187 18.0271 11.7652 18.0726 10.0932C18.1237 8.23083 19.1877 6.58835 20.6985 5.49219C22.6134 8.73934 22.4229 12.7822 20.543 15.9705C19.8937 17.0722 19.1365 18.0108 18.2561 18.9389C17.1739 20.0322 16.0428 20.9883 14.7435 21.978H14.7428Z" fill="#004555"/>
<path d="M25.0156 18.4486C26.2876 17.6193 27.4601 16.8418 28.5738 15.8759C29.4444 15.095 30.2212 14.2804 30.7941 13.2627C31.2816 12.3976 31.547 11.5025 31.5519 10.5023C31.5618 8.48859 32.5395 6.66539 34.2297 5.49219C35.6109 7.89253 35.9443 10.7376 35.115 13.3698C34.5806 14.9486 33.6973 16.2675 32.5606 17.4694C31.4126 18.6741 30.1392 19.6757 28.7517 20.6213L25.0156 18.4472V18.4486Z" fill="#004555"/>
<path d="M36.0754 40.5074L36.0684 33.8674C36.0166 32.9218 35.754 32.0827 35.2973 31.2611C34.8343 30.4746 34.2684 29.812 33.6016 29.141C34.4729 28.1387 35.4213 27.3059 36.4642 26.4766C38.5647 28.4812 39.9222 30.7225 40.0798 33.6951L40.0826 40.5039L36.0747 40.5074H36.0754Z" fill="#004555"/>
<path d="M22.0413 40.4984L18.0377 40.5076L18.0307 33.6918C17.9151 32.003 17.2469 30.5287 16.1641 29.1895C17.1503 28.3055 18.1953 27.5764 19.3209 26.8438C20.0108 27.6758 20.5704 28.5619 21.0481 29.5509C21.6806 30.9377 22.0168 32.3694 22.0413 33.9047V40.4984Z" fill="#004555"/>
<path d="M29.6579 26.1912L25.7775 23.919L21.9742 21.6945C20.7989 20.9478 19.6797 20.2012 18.5625 19.3299C19.473 18.3766 20.2666 17.4142 20.9586 16.2578C22.1795 17.223 23.4458 18.0628 24.7885 18.8746L28.8279 21.2126L32.5107 23.4252C31.4972 24.2769 30.5642 25.1518 29.6586 26.1912H29.6579Z" fill="#004555"/>
<path d="M43.5622 59.0606C44.1352 59.885 44.5568 60.6883 44.8237 61.6199C45.5402 64.1218 44.7579 66.7323 42.7946 68.4301C39.8948 70.9369 35.4724 70.7282 32.8325 67.9272C31.6411 66.6636 31.0289 65.0232 31.0513 63.2764C30.9848 61.3586 29.6715 59.7126 28.2861 58.517C26.0868 62.702 26.8607 67.6428 30.2437 70.8802C34.7643 75.2067 42.1348 74.9993 46.3667 70.3997C49.5999 66.8857 49.9424 61.8896 47.4839 57.8362C46.822 56.7443 46.0445 55.8274 45.1613 54.9071C44.1086 53.8655 42.9963 52.941 41.7874 52.0185L38.494 54.4L41.5065 56.8094C42.2546 57.5182 42.9305 58.2151 43.5622 59.0613V59.0606Z" fill="#004555"/>
<path d="M12.0193 53.3884L15.7588 50.6196C14.6613 49.8331 13.6057 49.0815 12.5943 48.1661L8.56202 51.0896C5.90112 53.0277 3.14427 55.1836 1.47166 58.07C0.0855291 60.4627 -0.359238 63.2433 0.299157 65.935C0.912726 68.3592 2.3689 70.4086 4.38191 71.8718C8.21671 74.6203 13.4425 74.7071 17.3607 72.0721C16.2975 71.2225 15.4261 70.3253 14.7005 69.1815C11.91 70.7932 8.41003 70.4275 6.07272 68.2261C4.25793 66.5045 3.57222 63.9886 4.28175 61.5833C4.62566 60.4185 5.21471 59.4036 6.00058 58.4658C6.88101 57.4144 7.84269 56.4885 8.94585 55.6697L12.02 53.3898L12.0193 53.3884Z" fill="#004555"/>
<path d="M45.08 33.4907L45.0772 40.3002C44.8524 44.1553 41.538 46.7392 38.7041 48.8684L35.0325 51.5083C33.7213 52.4861 32.4739 53.4653 31.2656 54.6308C32.2588 55.4853 33.175 56.3622 33.9826 57.4297C35.1221 56.3314 36.2925 55.4069 37.5351 54.4914L41.2354 51.8277C45.1641 48.8951 48.9386 45.5001 49.0857 40.2176V33.4921L45.0793 33.4907H45.08Z" fill="#004555"/>
<path d="M13.0296 39.7797V33.4927L9.00781 33.4941L9.01201 40.2167C9.14019 43.4751 10.7533 45.8474 13.0934 47.9662C14.2308 48.9601 15.4069 49.802 16.6732 50.6341L20.3049 52.8047L24.05 50.5052L19.5183 47.8555C17.4423 46.503 15.2128 45.0328 13.8911 42.8993C13.3252 41.9454 13.0009 40.9417 13.0303 39.7804L13.0296 39.7797Z" fill="#004555"/>
<path d="M17.5644 63.8758C17.5125 61.4159 16.7484 59.9786 15.1703 58.2185C13.8753 60.0984 13.3499 62.2599 13.5734 64.5005C13.8535 67.3618 15.351 69.9043 17.6176 71.6616C21.4636 74.6048 26.854 74.782 30.885 72.07C29.7881 71.2169 28.9224 70.2755 28.2122 69.1779C25.2249 70.922 21.4762 70.3343 19.1753 67.7946C18.255 66.695 17.5959 65.381 17.5644 63.8751V63.8758Z" fill="#004555"/>
<path d="M31.0526 33.4931H27.0469L27.0511 40.442C27.1716 42.2666 27.6681 43.9315 28.6011 45.4843C29.2469 46.5854 30.0258 47.5127 30.9048 48.4415C31.9813 49.5138 33.1146 50.4748 34.3593 51.4141L37.6533 49.034L34.7382 46.7093C33.8515 45.8793 33.0383 45.0542 32.3687 44.0442C31.5128 42.7653 31.0484 41.3616 31.054 39.8102L31.0512 33.4917L31.0526 33.4931Z" fill="#004555"/>
<path d="M3.998 33.4888H0.000700421L0 40.2289C0.0497299 42.0591 0.548429 43.7507 1.44777 45.328C2.1657 46.5762 3.04683 47.6338 4.06174 48.6578C5.08225 49.6482 6.15039 50.5426 7.30329 51.4062L10.5974 49.0332L7.75786 46.78C6.88794 45.9815 6.10277 45.1795 5.42266 44.2192C4.58005 42.9949 4.07014 41.6606 4.0008 40.1603L3.998 33.4895V33.4888Z" fill="#004555"/>
<path d="M14.7428 52.0142L11.4375 54.4012C13.3377 55.8119 15.3381 57.3346 16.6633 59.2979C17.66 60.6735 18.0271 62.227 18.0726 63.8989C18.1237 65.7614 19.1877 67.4038 20.6985 68.5C22.6134 65.2529 22.4229 61.21 20.543 58.0217C19.8937 56.9199 19.1365 55.9814 18.2561 55.0533C17.1739 53.96 16.0428 53.0039 14.7435 52.0142H14.7428Z" fill="#004555"/>
<path d="M25.0156 55.5436C26.2876 56.3729 27.4601 57.1504 28.5738 58.1163C29.4444 58.8972 30.2212 59.7118 30.7941 60.7295C31.2816 61.5946 31.547 62.4897 31.5519 63.4899C31.5618 65.5036 32.5395 67.3268 34.2297 68.5C35.6109 66.0997 35.9443 63.2546 35.115 60.6224C34.5806 59.0436 33.6973 57.7247 32.5606 56.5228C31.4126 55.3181 30.1392 54.3165 28.7517 53.3709L25.0156 55.545V55.5436Z" fill="#004555"/>
<path d="M36.0754 33.4926L36.0684 40.1326C36.0166 41.0782 35.754 41.9173 35.2973 42.7389C34.8343 43.5254 34.2684 44.188 33.6016 44.859C34.4729 45.8613 35.4213 46.6941 36.4642 47.5234C38.5647 45.5188 39.9222 43.2775 40.0798 40.3049L40.0826 33.4961L36.0747 33.4926H36.0754Z" fill="#004555"/>
<path d="M22.0413 33.4937L18.0377 33.4846L18.0307 40.3004C17.9151 41.9891 17.2469 43.4635 16.1641 44.8027C17.1503 45.6867 18.1953 46.4158 19.3209 47.1484C20.0108 46.3163 20.5704 45.4303 21.0481 44.4413C21.6806 43.0545 22.0168 41.6228 22.0413 40.0875V33.4937Z" fill="#004555"/>
<path d="M29.6579 47.801L25.7775 50.0732L21.9742 52.2977C20.7989 53.0444 19.6797 53.791 18.5625 54.6623C19.473 55.6156 20.2666 56.578 20.9586 57.7344C22.1795 56.7692 23.4458 55.9294 24.7885 55.1176L28.8279 52.7796L32.5107 50.567C31.4972 49.7153 30.5642 48.8404 29.6586 47.801H29.6579Z" fill="#004555"/>
</svg>
